<svg xmlns="http://www.w3.org/2000/svg" viewBox="0 0 256 256">
  <rect width="256" height="256" fill="#232F3E"/>
  <rect x="40" y="60" width="176" height="136" rx="8" fill="#146EB4"/>
  <rect x="50" y="70" width="156" height="100" fill="#FFFFFF"/>
  <path d="M70 150 L90 130 L110 145 L130 120 L150 135" stroke="#FF9900" stroke-width="4" fill="none" stroke-linecap="round" stroke-linejoin="round"/>
  <circle cx="70" cy="150" r="4" fill="#FF9900"/>
  <circle cx="90" cy="130" r="4" fill="#FF9900"/>
  <circle cx="110" cy="145" r="4" fill="#FF9900"/>
  <circle cx="130" cy="120" r="4" fill="#FF9900"/>
  <circle cx="150" cy="135" r="4" fill="#FF9900"/>
  <rect x="165" y="130" width="12" height="20" fill="#146EB4"/>
  <rect x="180" y="120" width="12" height="30" fill="#146EB4"/>
  <line x1="60" y1="160" x2="196" y2="160" stroke="#CCCCCC" stroke-width="1"/>
  <line x1="60" y1="80" x2="60" y2="160" stroke="#CCCCCC" stroke-width="1"/>
  <circle cx="128" cy="50" r="24" fill="#FF9900"/>
  <text x="128" y="62" font-family="Arial, sans-serif" font-size="32" font-weight="bold" fill="#232F3E" text-anchor="middle">$</text>
  <rect x="60" y="180" width="30" height="8" rx="2" fill="#146EB4"/>
  <rect x="100" y="180" width="30" height="8" rx="2" fill="#FF9900"/>
</svg>